<svg width="29" height="33" viewBox="0 0 29 33" fill="none" xmlns="http://www.w3.org/2000/svg">
<path d="M26.9467 7.15285L16.1512 0.970652C15.055 0.343116 13.6921 0.343116 12.5946 0.970652L1.79904 7.15285C0.689847 7.78815 0 8.97723 0 10.2543V22.5773C0 23.8569 0.689847 25.0447 1.79904 25.6787L12.5946 31.8609C13.1433 32.1741 13.7581 32.3319 14.3729 32.3319C14.9877 32.3319 15.6024 32.1753 16.1512 31.8609L26.9467 25.6787C28.0572 25.0434 28.7458 23.8544 28.7458 22.5773V10.2543C28.7458 8.97464 28.0559 7.78685 26.9467 7.15156V7.15285ZM27.5796 23.7793L22.0531 20.5899L27.8644 17.2607V22.5786C27.8644 23.0017 27.7634 23.4131 27.5796 23.7806V23.7793ZM0.881399 22.5773V17.4832L6.43123 20.6365L1.1286 23.6978C0.969409 23.351 0.882693 22.9706 0.882693 22.5773H0.881399ZM1.00435 9.45726L6.42994 12.5885L0.881399 15.7443V10.2543C0.881399 9.97999 0.925404 9.71216 1.00435 9.45726ZM14.7236 15.8491V9.3214L20.4223 12.56L14.7236 15.8491ZM20.8313 13.3415V19.8834L15.165 16.6125L20.8313 13.3415ZM13.8422 15.8491L8.2018 12.5936L13.8422 9.3861V15.8491ZM13.4009 16.6125L7.65303 19.93V13.2936L13.4009 16.6112V16.6125ZM6.77163 19.8148L1.13637 16.6125L6.77163 13.4075V19.8148ZM13.8422 17.3746V23.8324L8.20438 20.6287L13.8422 17.3746ZM14.7236 17.3746L20.2851 20.5847L14.7236 23.7703V17.3746ZM21.7127 13.2911L27.3868 16.5154L21.7127 19.7657V13.2911ZM20.8313 11.7759L15.231 8.59295L20.8313 5.40739V11.7746V11.7759ZM7.65303 11.8898V5.30129L13.4475 8.59424L7.65303 11.8898ZM13.3426 24.5608L7.65303 27.8201V21.3287L13.3426 24.5608ZM20.8313 21.286V27.802L15.121 24.5569L20.8313 21.286ZM27.8644 10.2517V15.7727L22.1955 12.5509L27.7129 9.3654C27.8113 9.64617 27.8631 9.94506 27.8631 10.2504L27.8644 10.2517ZM27.291 8.59295L21.7127 11.8134V5.16802L26.508 7.91495C26.8147 8.09092 27.0787 8.32252 27.291 8.59295ZM20.5957 4.52884L14.7236 7.86837V1.40281C15.0679 1.4481 15.4044 1.55808 15.7125 1.73405L20.5957 4.53014V4.52884ZM13.032 1.73275C13.287 1.58654 13.5601 1.48691 13.8409 1.43128V7.80497L8.11249 4.54955L13.032 1.73275ZM2.23779 7.91754L6.77163 5.3207V11.7694L1.4017 8.66928C1.62172 8.36781 1.90387 8.10903 2.23779 7.91754ZM1.62302 24.4301L6.77163 21.4581V27.5122L2.23779 24.9153C2.00741 24.7834 1.80163 24.619 1.62302 24.4301ZM8.37135 28.427L13.8422 25.2932V31.399C13.5614 31.3434 13.2883 31.2425 13.0333 31.0975L8.37135 28.4282V28.427ZM15.7137 31.0962C15.4044 31.2735 15.0679 31.3835 14.7249 31.4288V25.3488L20.2605 28.4942L15.715 31.0975L15.7137 31.0962ZM26.5093 24.914L21.714 27.6597V21.4089L27.0593 24.4948C26.8962 24.6553 26.7125 24.7963 26.5093 24.9128V24.914Z" fill="#00C1FA"/>
</svg>
